<?xml version="1.0" encoding="UTF-8"?>
<!DOCTYPE svg PUBLIC "-//W3C//DTD SVG 1.1//EN" "http://www.w3.org/Graphics/SVG/1.1/DTD/svg11.dtd">
<!-- Creator: CorelDRAW 2018 (64-Bit) -->
<svg xmlns="http://www.w3.org/2000/svg" xml:space="preserve" width="162.56mm" height="91.4398mm" version="1.1" style="shape-rendering:geometricPrecision; text-rendering:geometricPrecision; image-rendering:optimizeQuality; fill-rule:evenodd; clip-rule:evenodd"
viewBox="0 0 16255.98 9143.98"
 xmlns:xlink="http://www.w3.org/1999/xlink">
 <defs>
  <style type="text/css">
   <![CDATA[
    .fil0 {fill:#FEFEFE;fill-rule:nonzero}
   ]]>
  </style>
 </defs>
 <g id="Layer_x0020_1">
  <metadata id="CorelCorpID_0Corel-Layer"/>
  <path class="fil0" d="M1589.55 6715.2c-177.16,0 -321.28,-144.12 -321.28,-321.29 0,-177.15 144.12,-321.27 321.28,-321.27 177.16,0 321.29,144.12 321.29,321.27 0,177.17 -144.13,321.29 -321.29,321.29z"/>
  <polygon class="fil0" points="16255.99,9143.99 15542.4,9143.99 15542.4,8791.95 16255.99,8791.95 "/>
  <g id="_1470045191856">
   <g>
    <polygon class="fil0" points="11437.47,5510.61 11424.01,5510.61 11424.01,2565.87 11437.47,2565.87 "/>
    <polygon class="fil0" points="11871.58,5510.61 11858.11,5510.61 11858.11,2565.87 11871.58,2565.87 "/>
    <polygon class="fil0" points="12305.68,5510.61 12292.22,5510.61 12292.22,2565.87 12305.68,2565.87 "/>
    <polygon class="fil0" points="12739.79,5510.61 12726.33,5510.61 12726.33,2565.87 12739.79,2565.87 "/>
    <polygon class="fil0" points="13173.9,5510.61 13160.43,5510.61 13160.43,2565.87 13173.9,2565.87 "/>
    <polygon class="fil0" points="13608.01,5510.61 13594.54,5510.61 13594.54,2565.87 13608.01,2565.87 "/>
   </g>
   <g>
    <polygon class="fil0" points="13988.38,2959.7 11043.64,2959.7 11043.64,2946.23 13988.38,2946.23 "/>
    <polygon class="fil0" points="13988.38,3393.81 11043.64,3393.81 11043.64,3380.34 13988.38,3380.34 "/>
    <polygon class="fil0" points="13988.38,3827.92 11043.64,3827.92 11043.64,3814.45 13988.38,3814.45 "/>
    <polygon class="fil0" points="13988.38,4262.03 11043.64,4262.03 11043.64,4248.56 13988.38,4248.56 "/>
    <polygon class="fil0" points="13988.38,4696.13 11043.64,4696.13 11043.64,4682.67 13988.38,4682.67 "/>
    <polygon class="fil0" points="13988.38,5130.24 11043.64,5130.24 11043.64,5116.77 13988.38,5116.77 "/>
   </g>
  </g>
  <g id="_1470045190288">
   <g>
    <polygon class="fil0" points="2148.57,9143.99 2148.57,7955.98 2162.04,7955.98 2162.04,9143.99 "/>
    <polygon class="fil0" points="2582.68,9143.99 2582.68,7955.98 2596.14,7955.98 2596.14,9143.99 "/>
    <polygon class="fil0" points="3016.79,9143.99 3016.79,7955.98 3030.25,7955.98 3030.25,9143.99 "/>
    <polygon class="fil0" points="3450.9,9143.99 3450.9,7955.98 3464.36,7955.98 3464.36,9143.99 "/>
    <polygon class="fil0" points="3885.01,9143.99 3885.01,7955.98 3898.48,7955.98 3898.48,9143.99 "/>
    <polygon class="fil0" points="4319.12,9143.99 4319.12,7955.98 4332.59,7955.98 4332.59,9143.99 "/>
   </g>
   <g>
    <polygon class="fil0" points="4712.94,8349.82 1768.2,8349.82 1768.2,8336.35 4712.94,8336.35 "/>
    <polygon class="fil0" points="4712.94,8783.92 1768.2,8783.92 1768.2,8770.46 4712.94,8770.46 "/>
   </g>
  </g>
  <g id="_1470045186096">
   <polygon class="fil0" points="1166.95,4040.38 714.14,4493.19 714.14,4467.33 1166.95,4014.53 "/>
   <polygon class="fil0" points="1166.95,4274.71 714.14,4727.51 714.14,4701.65 1166.95,4248.85 "/>
   <polygon class="fil0" points="1166.95,4509.04 714.14,4961.84 714.14,4935.98 1166.95,4483.18 "/>
   <polygon class="fil0" points="1166.95,4743.35 714.14,5196.17 714.14,5170.31 1166.95,4717.5 "/>
   <polygon class="fil0" points="1166.95,4977.69 714.14,5430.49 714.14,5404.62 1166.95,4951.83 "/>
   <polygon class="fil0" points="1166.95,5212 714.14,5664.81 714.14,5638.96 1166.95,5186.15 "/>
   <polygon class="fil0" points="1166.95,5446.34 714.14,5899.14 714.14,5873.27 1166.95,5420.47 "/>
  </g>
  <g id="_1470045180176">
   <polygon class="fil0" points="14562.91,1725.74 15015.72,2178.54 15015.72,2152.68 14562.91,1699.88 "/>
   <polygon class="fil0" points="14562.91,1960.06 15015.72,2412.86 15015.72,2387 14562.91,1934.2 "/>
   <polygon class="fil0" points="14562.91,2194.39 15015.72,2647.19 15015.72,2621.33 14562.91,2168.53 "/>
   <polygon class="fil0" points="14562.91,2428.71 15015.72,2881.52 15015.72,2855.66 14562.91,2402.85 "/>
   <polygon class="fil0" points="14562.91,2663.04 15015.72,3115.84 15015.72,3089.98 14562.91,2637.18 "/>
   <polygon class="fil0" points="14562.91,2897.36 15015.72,3350.17 15015.72,3324.31 14562.91,2871.5 "/>
   <polygon class="fil0" points="14562.91,3131.69 15015.72,3584.49 15015.72,3558.63 14562.91,3105.82 "/>
   <polygon class="fil0" points="14562.91,3366 15015.72,3818.82 15015.72,3792.96 14562.91,3340.14 "/>
   <polygon class="fil0" points="14562.91,3600.34 15015.72,4053.13 15015.72,4027.27 14562.91,3574.47 "/>
   <polygon class="fil0" points="14562.91,3834.65 15015.72,4287.46 15015.72,4261.6 14562.91,3808.79 "/>
   <polygon class="fil0" points="14562.91,4068.98 15015.72,4521.78 15015.72,4495.92 14562.91,4043.12 "/>
   <polygon class="fil0" points="14562.91,4303.3 15015.72,4756.11 15015.72,4730.25 14562.91,4277.44 "/>
   <polygon class="fil0" points="14562.91,4537.63 15015.72,4990.43 15015.72,4964.57 14562.91,4511.76 "/>
   <polygon class="fil0" points="14562.91,4771.94 15015.72,5224.76 15015.72,5198.9 14562.91,4746.09 "/>
  </g>
  <path class="fil0" d="M5339.25 4913.14l-970.84 -1553.09 -1449.12 1989.31 2419.96 -436.22zm-38.46 -27.01l0 0 -1022.11 -451.81 95.73 -1030.14 926.38 1481.95zm-945.15 -1477.52l0 0 -95.38 1026.25 -1283.19 864.98 1378.57 -1891.23zm-1375.47 1911.18l0 0 1289.71 -869.36 1023.47 452.42 -2313.18 416.94z"/>
  <path class="fil0" d="M2167.95 1099.99c0,-10.11 -8.19,-18.29 -18.29,-18.29l-1108.2 0c-2.38,0 -4.75,0.49 -6.98,1.41 -2.25,0.93 -4.27,2.27 -5.96,3.96l-554.09 554.09c-3.42,3.44 -5.35,8.08 -5.35,12.93l0 1108.2c0,2.38 0.49,4.75 1.41,6.98 1.85,4.48 5.42,8.04 9.89,9.89 2.23,0.93 4.6,1.42 6.99,1.42l1108.2 0c4.84,0 9.5,-1.93 12.92,-5.37l554.09 -554.07c1.69,-1.69 3.03,-3.71 3.96,-5.95 0.92,-2.24 1.41,-4.61 1.41,-6.99l0 -1108.21zm-36.58 1089.92l0 0 -1071.62 0 0 -1071.63 1071.62 0 0 1071.63zm-785.76 554.09l0 0 517.52 -517.52 125.99 0 -517.52 517.52 -125.99 0zm-138.91 0l0 0 517.52 -517.52 125.98 0 -517.51 517.52 -125.99 0zm-138.92 0l0 0 517.53 -517.52 125.98 0 -517.53 517.52 -125.98 0zm-138.91 0l0 0 517.52 -517.52 125.98 0 -517.52 517.52 -125.98 0zm-138.92 0l0 0 517.53 -517.52 125.98 0 -517.52 517.52 -125.99 0zm-138.91 0l0 0 517.52 -517.52 125.99 0 -517.53 517.52 -125.98 0zm-119.53 0l0 0 517.52 -517.52 106.6 0 -517.52 517.52 -106.6 0zm-25.86 -829.23l0 0 517.53 -517.51 0 126.35 -517.53 517.52 0 -126.36zm0 139.28l0 0 517.53 -517.5 0 126.33 -517.53 517.53 0 -126.36zm0 139.29l0 0 517.53 -517.53 0 126.36 -517.53 517.52 0 -126.35zm0 139.29l0 0 517.53 -517.53 0 126.35 -517.53 517.53 0 -126.35zm0 139.28l0 0 517.53 -517.53 0 126.36 -517.53 517.52 0 -126.35zm517.53 -1087.58l0 0 -517.53 517.51 0 -126.34 517.53 -517.53 0 126.36zm-517.53 1226.86l0 0 517.53 -517.53 0 106.97 -517.53 517.51 0 -106.95zm517.53 -1467.05l0 0 0 100.91 -517.53 517.52 0 -100.9 517.53 -517.53zm564.81 1599.86l0 0 -103.47 0 517.53 -517.52 103.47 0 -517.53 517.52z"/>
  <path class="fil0" d="M15332.08 2214.19c-10.11,0 -18.29,8.18 -18.29,18.28l0 1108.2c0,2.38 0.48,4.75 1.41,6.99 0.92,2.24 2.27,4.27 3.96,5.96l554.09 554.08c3.43,3.43 8.07,5.35 12.93,5.35l369.81 0 0 -36.57 -109.14 0 0 0 -517.51 -517.52 126.36 0 500.29 500.31 0 -12.93 -487.36 -487.38 126.34 0 361.02 361.02 0 -12.93 -348.09 -348.09 126.35 0 221.74 221.74 0 -12.93 -208.81 -208.81 126.36 0 82.45 82.46 0 -12.93 -69.53 -69.53 69.53 0 0 -36.57 -905.63 0 0 -1071.63 905.63 0 0 -36.57 -923.91 0zm284.33 1144.77l0 0 517.52 517.52 -126.34 0 -517.53 -517.52 126.35 0zm-240.19 0l0 0 100.91 0 517.53 517.52 -100.91 0 -517.53 -517.52z"/>
  <g id="_1470018144816">
   <path class="fil0" d="M1203.75 330.44c0,18.29 14.83,33.11 33.11,33.11 18.29,0 33.11,-14.82 33.11,-33.11 0,-18.28 -14.82,-33.1 -33.11,-33.1 -18.28,0 -33.11,14.82 -33.11,33.1z"/>
   <path class="fil0" d="M1568.78 330.44c0,18.29 14.82,33.11 33.1,33.11 18.29,0 33.11,-14.82 33.11,-33.11 0,-18.28 -14.82,-33.1 -33.11,-33.1 -18.28,0 -33.1,14.82 -33.1,33.1z"/>
   <path class="fil0" d="M1933.8 330.44c0,18.29 14.82,33.11 33.11,33.11 18.28,0 33.1,-14.82 33.1,-33.11 0,-18.28 -14.82,-33.1 -33.1,-33.1 -18.29,0 -33.11,14.82 -33.11,33.1z"/>
   <path class="fil0" d="M2298.82 330.44c0,18.29 14.82,33.11 33.11,33.11 18.28,0 33.1,-14.82 33.1,-33.11 0,-18.28 -14.82,-33.1 -33.1,-33.1 -18.29,0 -33.11,14.82 -33.11,33.1z"/>
   <path class="fil0" d="M2663.84 330.44c0,18.29 14.82,33.11 33.11,33.11 18.28,0 33.1,-14.82 33.1,-33.11 0,-18.28 -14.82,-33.1 -33.1,-33.1 -18.29,0 -33.11,14.82 -33.11,33.1z"/>
   <path class="fil0" d="M3028.86 330.44c0,18.29 14.82,33.11 33.11,33.11 18.28,0 33.1,-14.82 33.1,-33.11 0,-18.28 -14.82,-33.1 -33.1,-33.1 -18.29,0 -33.11,14.82 -33.11,33.1z"/>
   <path class="fil0" d="M3393.88 330.44c0,18.29 14.82,33.11 33.11,33.11 18.28,0 33.1,-14.82 33.1,-33.11 0,-18.28 -14.82,-33.1 -33.1,-33.1 -18.29,0 -33.11,14.82 -33.11,33.1z"/>
   <path class="fil0" d="M3758.9 330.44c0,18.29 14.82,33.11 33.11,33.11 18.28,0 33.1,-14.82 33.1,-33.11 0,-18.28 -14.82,-33.1 -33.1,-33.1 -18.29,0 -33.11,14.82 -33.11,33.1z"/>
   <path class="fil0" d="M4123.92 330.44c0,18.29 14.82,33.11 33.11,33.11 18.28,0 33.1,-14.82 33.1,-33.11 0,-18.28 -14.82,-33.1 -33.1,-33.1 -18.29,0 -33.11,14.82 -33.11,33.1z"/>
   <path class="fil0" d="M4488.94 330.44c0,18.29 14.82,33.11 33.11,33.11 18.28,0 33.1,-14.82 33.1,-33.11 0,-18.28 -14.82,-33.1 -33.1,-33.1 -18.29,0 -33.11,14.82 -33.11,33.1z"/>
   <path class="fil0" d="M4853.96 330.44c0,18.29 14.82,33.11 33.11,33.11 18.28,0 33.11,-14.82 33.11,-33.11 0,-18.28 -14.83,-33.1 -33.11,-33.1 -18.29,0 -33.11,14.82 -33.11,33.1z"/>
   <path class="fil0" d="M5218.98 330.44c0,18.29 14.82,33.11 33.11,33.11 18.28,0 33.11,-14.82 33.11,-33.11 0,-18.28 -14.83,-33.1 -33.11,-33.1 -18.29,0 -33.11,14.82 -33.11,33.1z"/>
   <path class="fil0" d="M5584 330.44c0,18.29 14.82,33.11 33.11,33.11 18.29,0 33.11,-14.82 33.11,-33.11 0,-18.28 -14.82,-33.1 -33.11,-33.1 -18.29,0 -33.11,14.82 -33.11,33.1z"/>
   <path class="fil0" d="M1203.75 641.46c0,18.29 14.83,33.11 33.11,33.11 18.29,0 33.11,-14.82 33.11,-33.11 0,-18.29 -14.82,-33.11 -33.11,-33.11 -18.28,0 -33.11,14.82 -33.11,33.11z"/>
   <path class="fil0" d="M1568.78 641.46c0,18.29 14.82,33.11 33.1,33.11 18.29,0 33.11,-14.82 33.11,-33.11 0,-18.29 -14.82,-33.11 -33.11,-33.11 -18.28,0 -33.1,14.82 -33.1,33.11z"/>
   <path class="fil0" d="M1933.8 641.46c0,18.29 14.82,33.11 33.11,33.11 18.28,0 33.1,-14.82 33.1,-33.11 0,-18.29 -14.82,-33.11 -33.1,-33.11 -18.29,0 -33.11,14.82 -33.11,33.11z"/>
   <path class="fil0" d="M2298.82 641.46c0,18.29 14.82,33.11 33.11,33.11 18.28,0 33.1,-14.82 33.1,-33.11 0,-18.29 -14.82,-33.11 -33.1,-33.11 -18.29,0 -33.11,14.82 -33.11,33.11z"/>
   <path class="fil0" d="M2663.84 641.46c0,18.29 14.82,33.11 33.11,33.11 18.28,0 33.1,-14.82 33.1,-33.11 0,-18.29 -14.82,-33.11 -33.1,-33.11 -18.29,0 -33.11,14.82 -33.11,33.11z"/>
   <path class="fil0" d="M3028.86 641.46c0,18.29 14.82,33.11 33.11,33.11 18.28,0 33.1,-14.82 33.1,-33.11 0,-18.29 -14.82,-33.11 -33.1,-33.11 -18.29,0 -33.11,14.82 -33.11,33.11z"/>
   <path class="fil0" d="M3393.88 641.46c0,18.29 14.82,33.11 33.11,33.11 18.28,0 33.1,-14.82 33.1,-33.11 0,-18.29 -14.82,-33.11 -33.1,-33.11 -18.29,0 -33.11,14.82 -33.11,33.11z"/>
   <path class="fil0" d="M3758.9 641.46c0,18.29 14.82,33.11 33.11,33.11 18.28,0 33.1,-14.82 33.1,-33.11 0,-18.29 -14.82,-33.11 -33.1,-33.11 -18.29,0 -33.11,14.82 -33.11,33.11z"/>
   <path class="fil0" d="M4123.92 641.46c0,18.29 14.82,33.11 33.11,33.11 18.28,0 33.1,-14.82 33.1,-33.11 0,-18.29 -14.82,-33.11 -33.1,-33.11 -18.29,0 -33.11,14.82 -33.11,33.11z"/>
   <path class="fil0" d="M4488.94 641.46c0,18.29 14.82,33.11 33.11,33.11 18.28,0 33.1,-14.82 33.1,-33.11 0,-18.29 -14.82,-33.11 -33.1,-33.11 -18.29,0 -33.11,14.82 -33.11,33.11z"/>
   <path class="fil0" d="M4853.96 641.46c0,18.29 14.82,33.11 33.11,33.11 18.28,0 33.11,-14.82 33.11,-33.11 0,-18.29 -14.83,-33.11 -33.11,-33.11 -18.29,0 -33.11,14.82 -33.11,33.11z"/>
   <path class="fil0" d="M5218.98 641.46c0,18.29 14.82,33.11 33.11,33.11 18.28,0 33.11,-14.82 33.11,-33.11 0,-18.29 -14.83,-33.11 -33.11,-33.11 -18.29,0 -33.11,14.82 -33.11,33.11z"/>
   <path class="fil0" d="M5584 641.46c0,18.29 14.82,33.11 33.11,33.11 18.29,0 33.11,-14.82 33.11,-33.11 0,-18.29 -14.82,-33.11 -33.11,-33.11 -18.29,0 -33.11,14.82 -33.11,33.11z"/>
   <path class="fil0" d="M1203.75 952.47c0,18.28 14.83,33.11 33.11,33.11 18.29,0 33.11,-14.83 33.11,-33.11 0,-18.28 -14.82,-33.1 -33.11,-33.1 -18.28,0 -33.11,14.82 -33.11,33.1z"/>
   <path class="fil0" d="M1568.78 952.47c0,18.28 14.82,33.11 33.1,33.11 18.29,0 33.11,-14.83 33.11,-33.11 0,-18.28 -14.82,-33.1 -33.11,-33.1 -18.28,0 -33.1,14.82 -33.1,33.1z"/>
   <path class="fil0" d="M1933.8 952.47c0,18.28 14.82,33.11 33.11,33.11 18.28,0 33.1,-14.83 33.1,-33.11 0,-18.28 -14.82,-33.1 -33.1,-33.1 -18.29,0 -33.11,14.82 -33.11,33.1z"/>
   <path class="fil0" d="M2298.82 952.47c0,18.28 14.82,33.11 33.11,33.11 18.28,0 33.1,-14.83 33.1,-33.11 0,-18.28 -14.82,-33.1 -33.1,-33.1 -18.29,0 -33.11,14.82 -33.11,33.1z"/>
   <path class="fil0" d="M2663.84 952.47c0,18.28 14.82,33.11 33.11,33.11 18.28,0 33.1,-14.83 33.1,-33.11 0,-18.28 -14.82,-33.1 -33.1,-33.1 -18.29,0 -33.11,14.82 -33.11,33.1z"/>
   <path class="fil0" d="M3028.86 952.47c0,18.28 14.82,33.11 33.11,33.11 18.28,0 33.1,-14.83 33.1,-33.11 0,-18.28 -14.82,-33.1 -33.1,-33.1 -18.29,0 -33.11,14.82 -33.11,33.1z"/>
   <path class="fil0" d="M3393.88 952.47c0,18.28 14.82,33.11 33.11,33.11 18.28,0 33.1,-14.83 33.1,-33.11 0,-18.28 -14.82,-33.1 -33.1,-33.1 -18.29,0 -33.11,14.82 -33.11,33.1z"/>
   <path class="fil0" d="M3758.9 952.47c0,18.28 14.82,33.11 33.11,33.11 18.28,0 33.1,-14.83 33.1,-33.11 0,-18.28 -14.82,-33.1 -33.1,-33.1 -18.29,0 -33.11,14.82 -33.11,33.1z"/>
   <path class="fil0" d="M4123.92 952.47c0,18.28 14.82,33.11 33.11,33.11 18.28,0 33.1,-14.83 33.1,-33.11 0,-18.28 -14.82,-33.1 -33.1,-33.1 -18.29,0 -33.11,14.82 -33.11,33.1z"/>
   <path class="fil0" d="M4488.94 952.47c0,18.28 14.82,33.11 33.11,33.11 18.28,0 33.1,-14.83 33.1,-33.11 0,-18.28 -14.82,-33.1 -33.1,-33.1 -18.29,0 -33.11,14.82 -33.11,33.1z"/>
   <path class="fil0" d="M4853.96 952.47c0,18.28 14.82,33.11 33.11,33.11 18.28,0 33.11,-14.83 33.11,-33.11 0,-18.28 -14.83,-33.1 -33.11,-33.1 -18.29,0 -33.11,14.82 -33.11,33.1z"/>
   <path class="fil0" d="M5218.98 952.47c0,18.28 14.82,33.11 33.11,33.11 18.28,0 33.11,-14.83 33.11,-33.11 0,-18.28 -14.83,-33.1 -33.11,-33.1 -18.29,0 -33.11,14.82 -33.11,33.1z"/>
   <path class="fil0" d="M5584 952.47c0,18.28 14.82,33.11 33.11,33.11 18.29,0 33.11,-14.83 33.11,-33.11 0,-18.28 -14.82,-33.1 -33.11,-33.1 -18.29,0 -33.11,14.82 -33.11,33.1z"/>
   <path class="fil0" d="M1203.75 1263.48c0,18.29 14.83,33.11 33.11,33.11 18.29,0 33.11,-14.82 33.11,-33.11 0,-18.28 -14.82,-33.1 -33.11,-33.1 -18.28,0 -33.11,14.82 -33.11,33.1z"/>
   <path class="fil0" d="M1568.78 1263.48c0,18.29 14.82,33.11 33.1,33.11 18.29,0 33.11,-14.82 33.11,-33.11 0,-18.28 -14.82,-33.1 -33.11,-33.1 -18.28,0 -33.1,14.82 -33.1,33.1z"/>
   <path class="fil0" d="M1933.8 1263.48c0,18.29 14.82,33.11 33.11,33.11 18.28,0 33.1,-14.82 33.1,-33.11 0,-18.28 -14.82,-33.1 -33.1,-33.1 -18.29,0 -33.11,14.82 -33.11,33.1z"/>
   <path class="fil0" d="M2298.82 1263.48c0,18.29 14.82,33.11 33.11,33.11 18.28,0 33.1,-14.82 33.1,-33.11 0,-18.28 -14.82,-33.1 -33.1,-33.1 -18.29,0 -33.11,14.82 -33.11,33.1z"/>
   <path class="fil0" d="M2663.84 1263.48c0,18.29 14.82,33.11 33.11,33.11 18.28,0 33.1,-14.82 33.1,-33.11 0,-18.28 -14.82,-33.1 -33.1,-33.1 -18.29,0 -33.11,14.82 -33.11,33.1z"/>
   <path class="fil0" d="M3028.86 1263.48c0,18.29 14.82,33.11 33.11,33.11 18.28,0 33.1,-14.82 33.1,-33.11 0,-18.28 -14.82,-33.1 -33.1,-33.1 -18.29,0 -33.11,14.82 -33.11,33.1z"/>
   <path class="fil0" d="M3393.88 1263.48c0,18.29 14.82,33.11 33.11,33.11 18.28,0 33.1,-14.82 33.1,-33.11 0,-18.28 -14.82,-33.1 -33.1,-33.1 -18.29,0 -33.11,14.82 -33.11,33.1z"/>
   <path class="fil0" d="M3758.9 1263.48c0,18.29 14.82,33.11 33.11,33.11 18.28,0 33.1,-14.82 33.1,-33.11 0,-18.28 -14.82,-33.1 -33.1,-33.1 -18.29,0 -33.11,14.82 -33.11,33.1z"/>
   <path class="fil0" d="M4123.92 1263.48c0,18.29 14.82,33.11 33.11,33.11 18.28,0 33.1,-14.82 33.1,-33.11 0,-18.28 -14.82,-33.1 -33.1,-33.1 -18.29,0 -33.11,14.82 -33.11,33.1z"/>
   <path class="fil0" d="M4488.94 1263.48c0,18.29 14.82,33.11 33.11,33.11 18.28,0 33.1,-14.82 33.1,-33.11 0,-18.28 -14.82,-33.1 -33.1,-33.1 -18.29,0 -33.11,14.82 -33.11,33.1z"/>
   <path class="fil0" d="M4853.96 1263.48c0,18.29 14.82,33.11 33.11,33.11 18.28,0 33.11,-14.82 33.11,-33.11 0,-18.28 -14.83,-33.1 -33.11,-33.1 -18.29,0 -33.11,14.82 -33.11,33.1z"/>
   <path class="fil0" d="M5218.98 1263.48c0,18.29 14.82,33.11 33.11,33.11 18.28,0 33.11,-14.82 33.11,-33.11 0,-18.28 -14.83,-33.1 -33.11,-33.1 -18.29,0 -33.11,14.82 -33.11,33.1z"/>
   <path class="fil0" d="M5584 1263.48c0,18.29 14.82,33.11 33.11,33.11 18.29,0 33.11,-14.82 33.11,-33.11 0,-18.28 -14.82,-33.1 -33.11,-33.1 -18.29,0 -33.11,14.82 -33.11,33.1z"/>
   <path class="fil0" d="M1203.75 1574.5c0,18.28 14.83,33.11 33.11,33.11 18.29,0 33.11,-14.83 33.11,-33.11 0,-18.29 -14.82,-33.11 -33.11,-33.11 -18.28,0 -33.11,14.82 -33.11,33.11z"/>
   <path class="fil0" d="M1568.78 1574.5c0,18.28 14.82,33.11 33.1,33.11 18.29,0 33.11,-14.83 33.11,-33.11 0,-18.29 -14.82,-33.11 -33.11,-33.11 -18.28,0 -33.1,14.82 -33.1,33.11z"/>
   <path class="fil0" d="M1933.8 1574.5c0,18.28 14.82,33.11 33.11,33.11 18.28,0 33.1,-14.83 33.1,-33.11 0,-18.29 -14.82,-33.11 -33.1,-33.11 -18.29,0 -33.11,14.82 -33.11,33.11z"/>
   <path class="fil0" d="M2298.82 1574.5c0,18.28 14.82,33.11 33.11,33.11 18.28,0 33.1,-14.83 33.1,-33.11 0,-18.29 -14.82,-33.11 -33.1,-33.11 -18.29,0 -33.11,14.82 -33.11,33.11z"/>
   <path class="fil0" d="M2663.84 1574.5c0,18.28 14.82,33.11 33.11,33.11 18.28,0 33.1,-14.83 33.1,-33.11 0,-18.29 -14.82,-33.11 -33.1,-33.11 -18.29,0 -33.11,14.82 -33.11,33.11z"/>
   <path class="fil0" d="M3028.86 1574.5c0,18.28 14.82,33.11 33.11,33.11 18.28,0 33.1,-14.83 33.1,-33.11 0,-18.29 -14.82,-33.11 -33.1,-33.11 -18.29,0 -33.11,14.82 -33.11,33.11z"/>
   <path class="fil0" d="M3393.88 1574.5c0,18.28 14.82,33.11 33.11,33.11 18.28,0 33.1,-14.83 33.1,-33.11 0,-18.29 -14.82,-33.11 -33.1,-33.11 -18.29,0 -33.11,14.82 -33.11,33.11z"/>
   <path class="fil0" d="M3758.9 1574.5c0,18.28 14.82,33.11 33.11,33.11 18.28,0 33.1,-14.83 33.1,-33.11 0,-18.29 -14.82,-33.11 -33.1,-33.11 -18.29,0 -33.11,14.82 -33.11,33.11z"/>
   <path class="fil0" d="M4123.92 1574.5c0,18.28 14.82,33.11 33.11,33.11 18.28,0 33.1,-14.83 33.1,-33.11 0,-18.29 -14.82,-33.11 -33.1,-33.11 -18.29,0 -33.11,14.82 -33.11,33.11z"/>
   <path class="fil0" d="M4488.94 1574.5c0,18.28 14.82,33.11 33.11,33.11 18.28,0 33.1,-14.83 33.1,-33.11 0,-18.29 -14.82,-33.11 -33.1,-33.11 -18.29,0 -33.11,14.82 -33.11,33.11z"/>
   <path class="fil0" d="M4853.96 1574.5c0,18.28 14.82,33.11 33.11,33.11 18.28,0 33.11,-14.83 33.11,-33.11 0,-18.29 -14.83,-33.11 -33.11,-33.11 -18.29,0 -33.11,14.82 -33.11,33.11z"/>
   <path class="fil0" d="M5218.98 1574.5c0,18.28 14.82,33.11 33.11,33.11 18.28,0 33.11,-14.83 33.11,-33.11 0,-18.29 -14.83,-33.11 -33.11,-33.11 -18.29,0 -33.11,14.82 -33.11,33.11z"/>
   <path class="fil0" d="M5584 1574.5c0,18.28 14.82,33.11 33.11,33.11 18.29,0 33.11,-14.83 33.11,-33.11 0,-18.29 -14.82,-33.11 -33.11,-33.11 -18.29,0 -33.11,14.82 -33.11,33.11z"/>
   <path class="fil0" d="M1203.75 1885.51c0,18.29 14.83,33.11 33.11,33.11 18.29,0 33.11,-14.82 33.11,-33.11 0,-18.28 -14.82,-33.1 -33.11,-33.1 -18.28,0 -33.11,14.82 -33.11,33.1z"/>
   <path class="fil0" d="M1568.78 1885.51c0,18.29 14.82,33.11 33.1,33.11 18.29,0 33.11,-14.82 33.11,-33.11 0,-18.28 -14.82,-33.1 -33.11,-33.1 -18.28,0 -33.1,14.82 -33.1,33.1z"/>
   <path class="fil0" d="M1933.8 1885.51c0,18.29 14.82,33.11 33.11,33.11 18.28,0 33.1,-14.82 33.1,-33.11 0,-18.28 -14.82,-33.1 -33.1,-33.1 -18.29,0 -33.11,14.82 -33.11,33.1z"/>
   <path class="fil0" d="M2298.82 1885.51c0,18.29 14.82,33.11 33.11,33.11 18.28,0 33.1,-14.82 33.1,-33.11 0,-18.28 -14.82,-33.1 -33.1,-33.1 -18.29,0 -33.11,14.82 -33.11,33.1z"/>
   <path class="fil0" d="M2663.84 1885.51c0,18.29 14.82,33.11 33.11,33.11 18.28,0 33.1,-14.82 33.1,-33.11 0,-18.28 -14.82,-33.1 -33.1,-33.1 -18.29,0 -33.11,14.82 -33.11,33.1z"/>
   <path class="fil0" d="M3028.86 1885.51c0,18.29 14.82,33.11 33.11,33.11 18.28,0 33.1,-14.82 33.1,-33.11 0,-18.28 -14.82,-33.1 -33.1,-33.1 -18.29,0 -33.11,14.82 -33.11,33.1z"/>
   <path class="fil0" d="M3393.88 1885.51c0,18.29 14.82,33.11 33.11,33.11 18.28,0 33.1,-14.82 33.1,-33.11 0,-18.28 -14.82,-33.1 -33.1,-33.1 -18.29,0 -33.11,14.82 -33.11,33.1z"/>
   <path class="fil0" d="M3758.9 1885.51c0,18.29 14.82,33.11 33.11,33.11 18.28,0 33.1,-14.82 33.1,-33.11 0,-18.28 -14.82,-33.1 -33.1,-33.1 -18.29,0 -33.11,14.82 -33.11,33.1z"/>
   <path class="fil0" d="M4123.92 1885.51c0,18.29 14.82,33.11 33.11,33.11 18.28,0 33.1,-14.82 33.1,-33.11 0,-18.28 -14.82,-33.1 -33.1,-33.1 -18.29,0 -33.11,14.82 -33.11,33.1z"/>
   <path class="fil0" d="M4488.94 1885.51c0,18.29 14.82,33.11 33.11,33.11 18.28,0 33.1,-14.82 33.1,-33.11 0,-18.28 -14.82,-33.1 -33.1,-33.1 -18.29,0 -33.11,14.82 -33.11,33.1z"/>
   <path class="fil0" d="M4853.96 1885.51c0,18.29 14.82,33.11 33.11,33.11 18.28,0 33.11,-14.82 33.11,-33.11 0,-18.28 -14.83,-33.1 -33.11,-33.1 -18.29,0 -33.11,14.82 -33.11,33.1z"/>
   <path class="fil0" d="M5218.98 1885.51c0,18.29 14.82,33.11 33.11,33.11 18.28,0 33.11,-14.82 33.11,-33.11 0,-18.28 -14.83,-33.1 -33.11,-33.1 -18.29,0 -33.11,14.82 -33.11,33.1z"/>
   <path class="fil0" d="M5584 1885.51c0,18.29 14.82,33.11 33.11,33.11 18.29,0 33.11,-14.82 33.11,-33.11 0,-18.28 -14.82,-33.1 -33.11,-33.1 -18.29,0 -33.11,14.82 -33.11,33.1z"/>
  </g>
  <g id="_1469858388752">
   <path class="fil0" d="M11958.16 8556.35c10.97,0 19.86,8.89 19.86,19.86 0,10.98 -8.89,19.87 -19.86,19.87 -10.97,0 -19.87,-8.89 -19.87,-19.87 0,-10.97 8.9,-19.86 19.87,-19.86z"/>
   <path class="fil0" d="M11958.16 8921.37c10.97,0 19.86,8.89 19.86,19.86 0,10.98 -8.89,19.87 -19.86,19.87 -10.97,0 -19.87,-8.89 -19.87,-19.87 0,-10.97 8.9,-19.86 19.87,-19.86z"/>
   <path class="fil0" d="M11647.14 8556.35c10.97,0 19.87,8.89 19.87,19.86 0,10.98 -8.9,19.87 -19.87,19.87 -10.97,0 -19.86,-8.89 -19.86,-19.87 0,-10.97 8.89,-19.86 19.86,-19.86z"/>
   <path class="fil0" d="M11647.14 8921.37c10.97,0 19.87,8.89 19.87,19.86 0,10.98 -8.9,19.87 -19.87,19.87 -10.97,0 -19.86,-8.89 -19.86,-19.87 0,-10.97 8.89,-19.86 19.86,-19.86z"/>
   <path class="fil0" d="M11336.13 8556.35c10.97,0 19.87,8.89 19.87,19.86 0,10.98 -8.9,19.87 -19.87,19.87 -10.97,0 -19.86,-8.89 -19.86,-19.87 0,-10.97 8.89,-19.86 19.86,-19.86z"/>
   <path class="fil0" d="M11336.13 8921.37c10.97,0 19.87,8.89 19.87,19.86 0,10.98 -8.9,19.87 -19.87,19.87 -10.97,0 -19.86,-8.89 -19.86,-19.87 0,-10.97 8.89,-19.86 19.86,-19.86z"/>
   <path class="fil0" d="M11025.12 8556.35c10.97,0 19.86,8.89 19.86,19.86 0,10.98 -8.89,19.87 -19.86,19.87 -10.98,0 -19.87,-8.89 -19.87,-19.87 0,-10.97 8.89,-19.86 19.87,-19.86z"/>
   <path class="fil0" d="M11025.12 8921.37c10.97,0 19.86,8.89 19.86,19.86 0,10.98 -8.89,19.87 -19.86,19.87 -10.98,0 -19.87,-8.89 -19.87,-19.87 0,-10.97 8.89,-19.86 19.87,-19.86z"/>
   <path class="fil0" d="M10714.1 8556.35c10.97,0 19.87,8.89 19.87,19.86 0,10.98 -8.9,19.87 -19.87,19.87 -10.97,0 -19.86,-8.89 -19.86,-19.87 0,-10.97 8.89,-19.86 19.86,-19.86z"/>
   <path class="fil0" d="M10714.1 8921.37c10.97,0 19.87,8.89 19.87,19.86 0,10.98 -8.9,19.87 -19.87,19.87 -10.97,0 -19.86,-8.89 -19.86,-19.87 0,-10.97 8.89,-19.86 19.86,-19.86z"/>
   <path class="fil0" d="M13513.23 4541.13c10.97,0 19.86,8.89 19.86,19.86 0,10.97 -8.89,19.86 -19.86,19.86 -10.98,0 -19.87,-8.89 -19.87,-19.86 0,-10.97 8.89,-19.86 19.87,-19.86z"/>
   <path class="fil0" d="M13513.23 4906.14c10.97,0 19.86,8.9 19.86,19.87 0,10.97 -8.89,19.86 -19.86,19.86 -10.98,0 -19.87,-8.89 -19.87,-19.86 0,-10.97 8.89,-19.87 19.87,-19.87z"/>
   <path class="fil0" d="M13513.23 5271.16c10.97,0 19.86,8.9 19.86,19.87 0,10.97 -8.89,19.86 -19.86,19.86 -10.98,0 -19.87,-8.89 -19.87,-19.86 0,-10.97 8.89,-19.87 19.87,-19.87z"/>
   <path class="fil0" d="M13513.23 5636.18c10.97,0 19.86,8.9 19.86,19.87 0,10.97 -8.89,19.86 -19.86,19.86 -10.98,0 -19.87,-8.89 -19.87,-19.86 0,-10.97 8.89,-19.87 19.87,-19.87z"/>
   <path class="fil0" d="M13513.23 6001.2c10.97,0 19.86,8.9 19.86,19.87 0,10.97 -8.89,19.86 -19.86,19.86 -10.98,0 -19.87,-8.89 -19.87,-19.86 0,-10.97 8.89,-19.87 19.87,-19.87z"/>
   <path class="fil0" d="M13513.23 6366.22c10.97,0 19.86,8.9 19.86,19.87 0,10.97 -8.89,19.86 -19.86,19.86 -10.98,0 -19.87,-8.89 -19.87,-19.86 0,-10.97 8.89,-19.87 19.87,-19.87z"/>
   <path class="fil0" d="M13513.23 6731.25c10.97,0 19.86,8.89 19.86,19.86 0,10.97 -8.89,19.87 -19.86,19.87 -10.98,0 -19.87,-8.9 -19.87,-19.87 0,-10.97 8.89,-19.86 19.87,-19.86z"/>
   <path class="fil0" d="M13513.23 7096.27c10.97,0 19.86,8.89 19.86,19.86 0,10.98 -8.89,19.87 -19.86,19.87 -10.98,0 -19.87,-8.89 -19.87,-19.87 0,-10.97 8.89,-19.86 19.87,-19.86z"/>
   <path class="fil0" d="M13513.23 7461.29c10.97,0 19.86,8.89 19.86,19.86 0,10.98 -8.89,19.87 -19.86,19.87 -10.98,0 -19.87,-8.89 -19.87,-19.87 0,-10.97 8.89,-19.86 19.87,-19.86z"/>
   <path class="fil0" d="M13513.23 7826.31c10.97,0 19.86,8.89 19.86,19.86 0,10.98 -8.89,19.87 -19.86,19.87 -10.98,0 -19.87,-8.89 -19.87,-19.87 0,-10.97 8.89,-19.86 19.87,-19.86z"/>
   <path class="fil0" d="M13513.23 8191.33c10.97,0 19.86,8.89 19.86,19.86 0,10.98 -8.89,19.87 -19.86,19.87 -10.98,0 -19.87,-8.89 -19.87,-19.87 0,-10.97 8.89,-19.86 19.87,-19.86z"/>
   <path class="fil0" d="M13513.23 8556.35c10.97,0 19.86,8.89 19.86,19.86 0,10.98 -8.89,19.87 -19.86,19.87 -10.98,0 -19.87,-8.89 -19.87,-19.87 0,-10.97 8.89,-19.86 19.87,-19.86z"/>
   <path class="fil0" d="M13513.23 8921.37c10.97,0 19.86,8.89 19.86,19.86 0,10.98 -8.89,19.87 -19.86,19.87 -10.98,0 -19.87,-8.89 -19.87,-19.87 0,-10.97 8.89,-19.86 19.87,-19.86z"/>
   <path class="fil0" d="M13202.21 4541.13c10.97,0 19.87,8.89 19.87,19.86 0,10.97 -8.9,19.86 -19.87,19.86 -10.97,0 -19.86,-8.89 -19.86,-19.86 0,-10.97 8.89,-19.86 19.86,-19.86z"/>
   <path class="fil0" d="M13202.21 4906.14c10.97,0 19.87,8.9 19.87,19.87 0,10.97 -8.9,19.86 -19.87,19.86 -10.97,0 -19.86,-8.89 -19.86,-19.86 0,-10.97 8.89,-19.87 19.86,-19.87z"/>
   <path class="fil0" d="M13202.21 5271.16c10.97,0 19.87,8.9 19.87,19.87 0,10.97 -8.9,19.86 -19.87,19.86 -10.97,0 -19.86,-8.89 -19.86,-19.86 0,-10.97 8.89,-19.87 19.86,-19.87z"/>
   <path class="fil0" d="M13202.21 5636.18c10.97,0 19.87,8.9 19.87,19.87 0,10.97 -8.9,19.86 -19.87,19.86 -10.97,0 -19.86,-8.89 -19.86,-19.86 0,-10.97 8.89,-19.87 19.86,-19.87z"/>
   <path class="fil0" d="M13202.21 6001.2c10.97,0 19.87,8.9 19.87,19.87 0,10.97 -8.9,19.86 -19.87,19.86 -10.97,0 -19.86,-8.89 -19.86,-19.86 0,-10.97 8.89,-19.87 19.86,-19.87z"/>
   <path class="fil0" d="M13202.21 6366.22c10.97,0 19.87,8.9 19.87,19.87 0,10.97 -8.9,19.86 -19.87,19.86 -10.97,0 -19.86,-8.89 -19.86,-19.86 0,-10.97 8.89,-19.87 19.86,-19.87z"/>
   <path class="fil0" d="M13202.21 6731.25c10.97,0 19.87,8.89 19.87,19.86 0,10.97 -8.9,19.87 -19.87,19.87 -10.97,0 -19.86,-8.9 -19.86,-19.87 0,-10.97 8.89,-19.86 19.86,-19.86z"/>
   <path class="fil0" d="M13202.21 7096.27c10.97,0 19.87,8.89 19.87,19.86 0,10.98 -8.9,19.87 -19.87,19.87 -10.97,0 -19.86,-8.89 -19.86,-19.87 0,-10.97 8.89,-19.86 19.86,-19.86z"/>
   <path class="fil0" d="M13202.21 7461.29c10.97,0 19.87,8.89 19.87,19.86 0,10.98 -8.9,19.87 -19.87,19.87 -10.97,0 -19.86,-8.89 -19.86,-19.87 0,-10.97 8.89,-19.86 19.86,-19.86z"/>
   <path class="fil0" d="M13202.21 7826.31c10.97,0 19.87,8.89 19.87,19.86 0,10.98 -8.9,19.87 -19.87,19.87 -10.97,0 -19.86,-8.89 -19.86,-19.87 0,-10.97 8.89,-19.86 19.86,-19.86z"/>
   <path class="fil0" d="M13202.21 8191.33c10.97,0 19.87,8.89 19.87,19.86 0,10.98 -8.9,19.87 -19.87,19.87 -10.97,0 -19.86,-8.89 -19.86,-19.87 0,-10.97 8.89,-19.86 19.86,-19.86z"/>
   <path class="fil0" d="M13202.21 8556.35c10.97,0 19.87,8.89 19.87,19.86 0,10.98 -8.9,19.87 -19.87,19.87 -10.97,0 -19.86,-8.89 -19.86,-19.87 0,-10.97 8.89,-19.86 19.86,-19.86z"/>
   <path class="fil0" d="M13202.21 8921.37c10.97,0 19.87,8.89 19.87,19.86 0,10.98 -8.9,19.87 -19.87,19.87 -10.97,0 -19.86,-8.89 -19.86,-19.87 0,-10.97 8.89,-19.86 19.86,-19.86z"/>
   <path class="fil0" d="M12891.2 4541.13c10.97,0 19.86,8.89 19.86,19.86 0,10.97 -8.89,19.86 -19.86,19.86 -10.98,0 -19.87,-8.89 -19.87,-19.86 0,-10.97 8.89,-19.86 19.87,-19.86z"/>
   <path class="fil0" d="M12891.2 4906.14c10.97,0 19.86,8.9 19.86,19.87 0,10.97 -8.89,19.86 -19.86,19.86 -10.98,0 -19.87,-8.89 -19.87,-19.86 0,-10.97 8.89,-19.87 19.87,-19.87z"/>
   <path class="fil0" d="M12891.2 5271.16c10.97,0 19.86,8.9 19.86,19.87 0,10.97 -8.89,19.86 -19.86,19.86 -10.98,0 -19.87,-8.89 -19.87,-19.86 0,-10.97 8.89,-19.87 19.87,-19.87z"/>
   <path class="fil0" d="M12891.2 5636.18c10.97,0 19.86,8.9 19.86,19.87 0,10.97 -8.89,19.86 -19.86,19.86 -10.98,0 -19.87,-8.89 -19.87,-19.86 0,-10.97 8.89,-19.87 19.87,-19.87z"/>
   <path class="fil0" d="M12891.2 6001.2c10.97,0 19.86,8.9 19.86,19.87 0,10.97 -8.89,19.86 -19.86,19.86 -10.98,0 -19.87,-8.89 -19.87,-19.86 0,-10.97 8.89,-19.87 19.87,-19.87z"/>
   <path class="fil0" d="M12891.2 6366.22c10.97,0 19.86,8.9 19.86,19.87 0,10.97 -8.89,19.86 -19.86,19.86 -10.98,0 -19.87,-8.89 -19.87,-19.86 0,-10.97 8.89,-19.87 19.87,-19.87z"/>
   <path class="fil0" d="M12891.2 6731.25c10.97,0 19.86,8.89 19.86,19.86 0,10.97 -8.89,19.87 -19.86,19.87 -10.98,0 -19.87,-8.9 -19.87,-19.87 0,-10.97 8.89,-19.86 19.87,-19.86z"/>
   <path class="fil0" d="M12891.2 7096.27c10.97,0 19.86,8.89 19.86,19.86 0,10.98 -8.89,19.87 -19.86,19.87 -10.98,0 -19.87,-8.89 -19.87,-19.87 0,-10.97 8.89,-19.86 19.87,-19.86z"/>
   <path class="fil0" d="M12891.2 7461.29c10.97,0 19.86,8.89 19.86,19.86 0,10.98 -8.89,19.87 -19.86,19.87 -10.98,0 -19.87,-8.89 -19.87,-19.87 0,-10.97 8.89,-19.86 19.87,-19.86z"/>
   <path class="fil0" d="M12891.2 7826.31c10.97,0 19.86,8.89 19.86,19.86 0,10.98 -8.89,19.87 -19.86,19.87 -10.98,0 -19.87,-8.89 -19.87,-19.87 0,-10.97 8.89,-19.86 19.87,-19.86z"/>
   <path class="fil0" d="M12891.2 8191.33c10.97,0 19.86,8.89 19.86,19.86 0,10.98 -8.89,19.87 -19.86,19.87 -10.98,0 -19.87,-8.89 -19.87,-19.87 0,-10.97 8.89,-19.86 19.87,-19.86z"/>
   <path class="fil0" d="M12891.2 8556.35c10.97,0 19.86,8.89 19.86,19.86 0,10.98 -8.89,19.87 -19.86,19.87 -10.98,0 -19.87,-8.89 -19.87,-19.87 0,-10.97 8.89,-19.86 19.87,-19.86z"/>
   <path class="fil0" d="M12891.2 8921.37c10.97,0 19.86,8.89 19.86,19.86 0,10.98 -8.89,19.87 -19.86,19.87 -10.98,0 -19.87,-8.89 -19.87,-19.87 0,-10.97 8.89,-19.86 19.87,-19.86z"/>
   <path class="fil0" d="M12580.19 8556.35c10.96,0 19.86,8.89 19.86,19.86 0,10.98 -8.9,19.87 -19.86,19.87 -10.97,0 -19.87,-8.89 -19.87,-19.87 0,-10.97 8.9,-19.86 19.87,-19.86z"/>
   <path class="fil0" d="M12580.19 8921.37c10.96,0 19.86,8.89 19.86,19.86 0,10.98 -8.9,19.87 -19.86,19.87 -10.97,0 -19.87,-8.89 -19.87,-19.87 0,-10.97 8.9,-19.86 19.87,-19.86z"/>
   <path class="fil0" d="M12269.17 8556.35c10.97,0 19.87,8.89 19.87,19.86 0,10.98 -8.9,19.87 -19.87,19.87 -10.97,0 -19.86,-8.89 -19.86,-19.87 0,-10.97 8.89,-19.86 19.86,-19.86z"/>
   <path class="fil0" d="M12269.17 8921.37c10.97,0 19.87,8.89 19.87,19.86 0,10.98 -8.9,19.87 -19.87,19.87 -10.97,0 -19.86,-8.89 -19.86,-19.87 0,-10.97 8.89,-19.86 19.86,-19.86z"/>
   <path class="fil0" d="M10403.09 8556.35c10.97,0 19.86,8.89 19.86,19.86 0,10.98 -8.89,19.87 -19.86,19.87 -10.97,0 -19.87,-8.89 -19.87,-19.87 0,-10.97 8.9,-19.86 19.87,-19.86z"/>
   <path class="fil0" d="M10403.09 8921.37c10.97,0 19.86,8.89 19.86,19.86 0,10.98 -8.89,19.87 -19.86,19.87 -10.97,0 -19.87,-8.89 -19.87,-19.87 0,-10.97 8.9,-19.86 19.87,-19.86z"/>
  </g>
  <g id="_1469859747872">
   <path class="fil0" d="M10915.95 1329.71c-268.98,0 -487.82,218.84 -487.82,487.82 0,269 218.84,487.84 487.82,487.84 268.98,0 487.82,-218.84 487.82,-487.84 0,-268.98 -218.84,-487.82 -487.82,-487.82zm0 938.72l0 0c-248.61,0 -450.88,-202.27 -450.88,-450.9 0,-248.61 202.27,-450.88 450.88,-450.88 248.62,0 450.88,202.27 450.88,450.88 0,248.63 -202.26,450.9 -450.88,450.9z"/>
   <path class="fil0" d="M10915.95 1594.47c-123,0 -223.06,100.06 -223.06,223.06 0,123 100.06,223.08 223.06,223.08 123,0 223.06,-100.08 223.06,-223.08 0,-123 -100.06,-223.06 -223.06,-223.06zm0 409.2l0 0c-102.63,0 -186.12,-83.5 -186.12,-186.14 0,-102.63 83.49,-186.12 186.12,-186.12 102.63,0 186.12,83.49 186.12,186.12 0,102.64 -83.49,186.14 -186.12,186.14z"/>
  </g>
  <g id="_1469859738112">
   <polygon class="fil0" points="1667.51,5117.7 1589.55,4994.89 1511.6,5117.7 "/>
   <polygon class="fil0" points="1667.51,5752.49 1589.55,5629.68 1511.6,5752.49 "/>
   <polygon class="fil0" points="1667.51,3624.21 1589.55,3501.4 1511.6,3624.21 "/>
   <polygon class="fil0" points="1667.51,4259 1589.55,4136.19 1511.6,4259 "/>
   <polygon class="fil0" points="1667.51,4528 1589.55,4405.19 1511.6,4528 "/>
  </g>
  <g id="_1469859735872">
   <polygon class="fil0" points="15417.87,491.64 15295.06,569.61 15417.87,647.56 "/>
   <polygon class="fil0" points="16052.65,491.64 15929.84,569.61 16052.65,647.56 "/>
   <polygon class="fil0" points="13924.38,491.64 13801.57,569.61 13924.38,647.56 "/>
   <polygon class="fil0" points="14559.16,491.64 14436.35,569.61 14559.16,647.56 "/>
   <polygon class="fil0" points="14828.17,491.64 14705.36,569.61 14828.17,647.56 "/>
  </g>
  <path class="fil0" d="M1588.7 8577.93c-16.61,-0.46 -29.63,-14.23 -29.04,-30.69 0.45,-16.62 14.23,-29.65 30.7,-29.19 16.46,0.45 29.48,14.22 29.04,30.83 -0.46,16.17 -13.78,29.05 -29.95,29.05 -0.29,0 -0.45,0 -0.75,0zm91.17 -30.84l0 0c-1.35,-16.47 10.78,-30.84 27.25,-32.33 16.46,-1.51 30.99,10.77 32.48,27.23 1.35,16.48 -10.92,31 -27.39,32.49 0,0 0,0 0,-0.15 -0.75,0.15 -1.65,0.15 -2.55,0.15 -15.42,0 -28.44,-11.81 -29.79,-27.39zm-214.37 20.5l0 0c-16.47,-2.38 -27.84,-17.51 -25.44,-33.82 2.39,-16.47 17.51,-27.84 33.83,-25.46 16.31,2.25 27.69,17.37 25.45,33.84 -2.1,14.98 -14.98,25.75 -29.64,25.75 -1.35,0 -2.85,-0.15 -4.2,-0.31zm333.83 -34.12l0 0c-3.14,-16.17 7.33,-32.04 23.5,-35.19 16.17,-3.28 32.04,7.2 35.33,23.37 3.14,16.17 -7.33,32.02 -23.5,35.31 -1.94,0.31 -3.9,0.6 -5.99,0.6 -13.92,0 -26.35,-9.86 -29.34,-24.09zm-455.08 9.73l0 0c-16.02,-4.19 -25.6,-20.52 -21.41,-36.52 4.19,-16.03 20.51,-25.6 36.53,-21.42 16.01,4.19 25.59,20.51 21.41,36.53 -3.6,13.48 -15.73,22.45 -28.9,22.45 -2.54,0 -5.08,-0.45 -7.63,-1.04zm572.29 -36.98l0 0c-5.09,-15.71 3.6,-32.63 19.17,-37.71l0.14 0c15.73,-5.11 32.5,3.58 37.73,19.31 5.09,15.71 -3.59,32.62 -19.31,37.71 -2.99,0.9 -6.14,1.35 -9.28,1.35 -12.58,0 -24.25,-7.94 -28.45,-20.66zm-690.11 -1.2l0 0c-15.26,-5.98 -22.9,-23.34 -17.06,-38.76 6.14,-15.43 23.35,-23.06 38.92,-17.07l-0.16 0c15.43,5.98 23.06,23.35 17.08,38.77 -4.49,11.83 -15.87,19.16 -27.85,19.16 -3.59,0 -7.34,-0.75 -10.93,-2.1zm803.44 -39.22l0 0c-6.89,-15.12 -0.3,-32.77 14.82,-39.66 14.97,-6.89 32.78,-0.31 39.67,14.66 6.89,15.12 0.15,32.79 -14.82,39.83 -4.04,1.79 -8.23,2.69 -12.43,2.69 -11.37,0 -22.15,-6.58 -27.24,-17.52zm-915.86 -12.12l0 0c-14.67,-7.79 -20.21,-25.91 -12.57,-40.42 7.78,-14.68 25.89,-20.36 40.41,-12.57 14.68,7.77 20.21,25.89 12.58,40.42 -5.39,10.17 -15.87,16.01 -26.5,16.01 -4.79,0 -9.58,-1.04 -13.92,-3.44zm1023.64 -41.02l0 0c-8.53,-14.22 -3.89,-32.63 10.18,-41.17 14.22,-8.54 32.64,-4.03 41.17,10.03 8.53,14.23 3.89,32.63 -10.18,41.17 -4.79,3 -10.18,4.34 -15.42,4.34 -10.18,0 -20.06,-5.09 -25.75,-14.37zm-1129.63 -22.9l0 0c-13.62,-9.29 -17.06,-28 -7.78,-41.62 9.28,-13.62 27.99,-17.07 41.61,-7.79 13.63,9.29 17.07,28 7.79,41.62 -5.84,8.38 -15.12,13.03 -24.7,13.03 -5.84,0 -11.68,-1.65 -16.92,-5.24zm1230.83 -42.37l0 0c-10.18,-13.02 -7.78,-31.89 5.38,-41.92 13.03,-10.17 31.89,-7.77 41.93,5.4 10.17,13.02 7.78,31.88 -5.4,41.91 -5.39,4.34 -11.82,6.29 -18.26,6.29 -8.98,0 -17.81,-4.04 -23.65,-11.68zm-1328.73 -33.09l0 0c-12.58,-10.92 -13.92,-29.77 -2.99,-42.36 10.77,-12.41 29.63,-13.78 42.21,-2.98 12.43,10.77 13.77,29.77 3,42.2 -5.99,6.89 -14.23,10.33 -22.61,10.33 -7.04,0 -13.92,-2.39 -19.61,-7.19zm1421.69 -43.11l0 0c-11.53,-11.82 -11.23,-30.83 0.6,-42.36 11.97,-11.53 30.84,-11.24 42.37,0.59 11.52,11.83 11.23,30.85 -0.6,42.37 -5.84,5.69 -13.33,8.54 -20.81,8.54 -7.79,0 -15.57,-3.15 -21.56,-9.14zm-1510.46 -43.11l0 0c-11.23,-12.12 -10.33,-31.14 1.8,-42.37 12.12,-11.07 31.13,-10.32 42.21,1.95 11.23,12.13 10.48,30.99 -1.64,42.22 -5.85,5.23 -13.03,7.94 -20.37,7.94 -8.08,0 -16.02,-3.31 -22,-9.74zm1594.29 -43.11l0 0c-12.72,-10.49 -14.67,-29.34 -4.19,-42.22 10.48,-12.72 29.34,-14.67 42.22,-4.18 12.72,10.47 14.67,29.34 4.19,42.2 -5.99,7.19 -14.52,10.94 -23.2,10.94 -6.59,0 -13.33,-2.25 -19.02,-6.74zm-1672.59 -52.54l0 0c-9.72,-13.34 -6.88,-32.05 6.44,-41.77 13.48,-9.74 32.19,-6.88 41.92,6.58 9.73,13.33 6.73,32.05 -6.58,41.77 -5.4,3.9 -11.53,5.68 -17.68,5.68 -9.13,0 -18.26,-4.18 -24.1,-12.26zm1746.09 -42.82l0 0c-13.91,-8.98 -17.81,-27.4 -8.83,-41.31 8.83,-13.92 27.4,-17.97 41.32,-9 13.92,9 17.96,27.56 8.98,41.33 -5.69,8.98 -15.42,13.77 -25.3,13.77 -5.53,0 -11.07,-1.5 -16.17,-4.79zm-1813.15 -61.08l0 0c-8.24,-14.37 -3.14,-32.63 11.23,-40.72 14.37,-8.23 32.63,-3.14 40.87,11.23 8.08,14.37 2.99,32.63 -11.23,40.72 -4.8,2.7 -9.88,4.05 -14.82,4.05 -10.48,0 -20.52,-5.55 -26.05,-15.28zm1875.43 -41.91l0 0c-14.82,-7.34 -20.96,-25.15 -13.63,-40.12 7.34,-14.82 25.31,-20.82 40.13,-13.62 14.82,7.33 20.95,25.29 13.62,40.11 -5.24,10.63 -15.87,16.77 -26.95,16.77 -4.34,0 -8.83,-1.05 -13.17,-3.14zm-1930.22 -68.86l0 0c-6.44,-15.27 0.74,-32.79 15.87,-39.39 15.27,-6.28 32.78,0.77 39.37,16.03 6.44,15.12 -0.75,32.79 -16.02,39.22 -3.74,1.65 -7.78,2.4 -11.68,2.4 -11.53,0 -22.6,-6.88 -27.54,-18.26zm1980.22 -40.57l0 0c-15.57,-5.54 -23.65,-22.61 -18.12,-38.33 5.55,-15.56 22.76,-23.65 38.32,-18.11 15.58,5.54 23.66,22.76 18.12,38.33 -4.34,12.27 -15.87,19.9 -28.14,19.9 -3.44,0 -6.73,-0.61 -10.18,-1.79zm-2021.83 -75.9l0 0c-4.64,-15.87 4.34,-32.48 20.2,-37.13 15.87,-4.78 32.49,4.34 37.28,20.22 4.64,15.86 -4.49,32.48 -20.36,37.12 -2.84,0.9 -5.69,1.19 -8.38,1.19 -13.03,0 -24.86,-8.37 -28.74,-21.4zm2058.96 -38.62l0 0c-16.02,-3.74 -26.06,-19.77 -22.31,-35.94 3.74,-16.01 19.76,-26.03 35.93,-22.29 16.02,3.58 26.05,19.75 22.3,35.92 -3.14,13.77 -15.42,23.05 -29.04,23.05 -2.25,0 -4.49,-0.14 -6.88,-0.74zm-2086.96 -81.88l0 0c-2.84,-16.32 8.08,-31.74 24.4,-34.59 16.31,-2.84 31.74,8.08 34.58,24.4 2.84,16.32 -8.08,31.74 -24.4,34.59 -1.79,0.29 -3.44,0.45 -5.09,0.45 -14.38,0 -27.09,-10.34 -29.49,-24.85zm2110.76 -36.08l0 0c-16.47,-1.8 -28.3,-16.62 -26.35,-33.09 1.8,-16.47 16.62,-28.14 33.08,-26.34 16.47,1.79 28.3,16.75 26.35,33.08 -1.65,15.26 -14.67,26.64 -29.64,26.64 -1.2,0 -2.24,-0.15 -3.44,-0.29zm-2124.98 -86.83l0 0c0,0 0,0 0,0.15 -0.9,-16.62 11.68,-30.68 28.29,-31.74 16.47,-0.89 30.54,11.68 31.58,28.29 0.9,16.48 -11.67,30.54 -28.14,31.59 -0.6,0 -1.19,0 -1.79,0 -15.72,0 -28.89,-12.28 -29.94,-28.29zm2105.21 -62.87l0 0c0,-0.46 0,-0.75 0,-1.2 0,-0.31 0,-0.6 0,-1.05 -0.14,-16.47 13.33,-29.94 29.79,-29.94 16.62,0 29.95,13.33 30.09,29.94 0,0.3 0,0.74 0,1.05 0,0.45 0,0.74 0,1.2 0,16.46 -13.47,29.94 -29.93,29.94 -16.62,0 -29.95,-13.48 -29.95,-29.94zm-2077.07 -29.05l0 0c-16.46,-1.04 -29.04,-15.12 -28.14,-31.58 0.89,-16.62 14.96,-29.19 31.43,-28.3 16.62,0.9 29.2,15.13 28.3,31.59 -0.9,15.86 -14.07,28.29 -29.94,28.29 -0.46,0 -1.05,0 -1.65,0zm2070.19 -89.82l0 0c-1.95,-16.46 9.88,-31.29 26.35,-33.23 16.47,-1.8 31.28,9.89 33.08,26.34 1.95,16.48 -9.73,31.29 -26.2,33.09 -1.19,0.16 -2.39,0.31 -3.44,0.31 -15.12,0 -27.99,-11.23 -29.79,-26.51zm-2060.01 -30.08l0 0c-16.32,-2.85 -27.24,-18.27 -24.55,-34.58 2.85,-16.33 18.26,-27.25 34.58,-24.56 16.32,2.85 27.25,18.27 24.4,34.59 -2.39,14.66 -15.12,25 -29.49,25 -1.65,0 -3.29,-0.15 -4.94,-0.45zm2039.95 -85.03l0 0c-3.74,-16.02 6.28,-32.19 22.46,-35.94 16.01,-3.73 32.18,6.29 35.92,22.32 3.75,16.16 -6.28,32.17 -22.3,35.92 -2.4,0.59 -4.64,0.9 -6.88,0.9 -13.63,0 -25.9,-9.43 -29.2,-23.2zm-2016.45 -32.94l0 0c-15.86,-4.65 -24.84,-21.25 -20.36,-37.13 4.8,-15.86 21.41,-25 37.13,-20.35 16.02,4.63 25,21.26 20.51,37.12 -3.89,13.02 -15.87,21.56 -28.9,21.56 -2.69,0 -5.53,-0.45 -8.38,-1.2zm1983.37 -79.04l0 0c-5.54,-15.57 2.54,-32.78 18.11,-38.32 15.57,-5.54 32.64,2.54 38.33,18.11 5.54,15.57 -2.55,32.64 -18.12,38.18 -3.29,1.19 -6.74,1.79 -10.18,1.79 -12.27,0 -23.65,-7.63 -28.14,-19.76zm-1946.24 -35.49l0 0c-15.27,-6.42 -22.45,-23.94 -16.02,-39.22 6.44,-15.26 24.1,-22.45 39.22,-16.01 15.27,6.44 22.46,24.1 16.02,39.23 -4.79,11.52 -15.87,18.4 -27.55,18.4 -3.89,0 -7.93,-0.74 -11.67,-2.4zm1900.58 -71.99l0 0c-7.34,-14.83 -1.35,-32.79 13.47,-40.11 14.82,-7.34 32.79,-1.37 40.12,13.46 0,0 0,0 0,0.14 7.34,14.83 1.35,32.65 -13.47,39.97 -4.34,2.11 -8.83,3.16 -13.32,3.16 -10.94,0 -21.56,-6.14 -26.8,-16.62zm-1850.73 -37.42l0 0c-14.38,-8.24 -19.46,-26.51 -11.23,-40.88 8.08,-14.37 26.35,-19.46 40.72,-11.37 14.37,8.08 19.46,26.34 11.37,40.71l0 0.16c-5.53,9.72 -15.71,15.11 -26.2,15.11 -4.93,0 -10.02,-1.19 -14.66,-3.73zm1792.95 -64.23l0 0c-8.98,-13.77 -4.95,-32.34 8.97,-41.31 13.93,-8.99 32.34,-4.95 41.33,8.83 8.97,13.92 5.08,32.48 -8.84,41.46 -5.09,3.3 -10.63,4.79 -16.17,4.79 -9.87,0 -19.46,-4.79 -25.29,-13.77zm-1730.68 -38.91l0 0c-13.47,-9.74 -16.47,-28.45 -6.73,-41.77 9.73,-13.48 28.44,-16.33 41.91,-6.74 13.33,9.72 16.32,28.43 6.59,41.91 -5.84,8.09 -14.97,12.28 -24.25,12.28 -6.14,0 -12.27,-1.8 -17.52,-5.68zm1661.82 -55.4l0 0c-10.49,-12.73 -8.69,-31.59 4.19,-42.07 12.72,-10.48 31.58,-8.68 42.06,4.05 10.48,12.87 8.69,31.74 -4.04,42.2 -5.69,4.51 -12.43,6.74 -19.02,6.74 -8.68,0 -17.21,-3.74 -23.19,-10.92zm-1588.47 -39.96l0 0c-12.12,-11.09 -13.02,-30.1 -1.79,-42.22 11.08,-12.28 30.09,-13.03 42.22,-1.95 12.27,11.23 13.02,30.24 1.94,42.37 -5.99,6.43 -14.07,9.72 -22.15,9.72 -7.19,0 -14.53,-2.54 -20.22,-7.92zm1509.28 -45.97l0 0c-11.83,-11.37 -12.13,-30.39 -0.61,-42.22 11.38,-11.97 30.39,-12.26 42.22,-0.74 11.97,11.53 12.27,30.54 0.74,42.36 -5.83,6 -13.77,9.14 -21.55,9.14 -7.49,0 -14.97,-2.85 -20.8,-8.54zm-1425.44 -40.28l0 0c-10.93,-12.57 -9.59,-31.42 2.84,-42.36 0,0 0,0 0,0.16 12.58,-10.93 31.44,-9.59 42.22,2.84 10.93,12.42 9.58,31.28 -2.85,42.22 -5.69,4.94 -12.72,7.34 -19.6,7.34 -8.39,0 -16.77,-3.46 -22.61,-10.2zm1336.96 -36.05l0 0c-13.02,-10.05 -15.57,-28.91 -5.39,-41.93 10.03,-13.18 28.89,-15.58 41.92,-5.54 13.17,10.04 15.56,28.9 5.54,41.92 -5.99,7.78 -14.83,11.67 -23.81,11.67 -6.28,0 -12.72,-1.95 -18.26,-6.12zm-1244 -40.28l0 0c-9.43,-13.63 -5.98,-32.34 7.64,-41.62 13.62,-9.43 32.33,-5.98 41.77,7.64 9.27,13.61 5.83,32.33 -7.79,41.61 -5.24,3.59 -11.08,5.39 -16.92,5.39 -9.58,0 -18.86,-4.65 -24.7,-13.02zm1147.59 -25.6l0 0 -0.15 0c-14.07,-8.54 -18.71,-26.94 -10.17,-41.17 8.53,-14.07 26.94,-18.71 41.16,-10.18 14.08,8.53 18.72,26.95 10.18,41.18 -5.53,9.28 -15.57,14.51 -25.74,14.51 -5.25,0 -10.49,-1.49 -15.28,-4.34zm-1046.55 -39.68l0 0c-7.78,-14.66 -2.24,-32.77 12.44,-40.41 14.52,-7.79 32.63,-2.25 40.41,12.27 7.79,14.68 2.25,32.79 -12.42,40.57 -4.5,2.39 -9.29,3.45 -13.93,3.45 -10.77,0 -21.1,-5.69 -26.5,-15.88zm943.11 -14.81l0 0c-15.11,-6.88 -21.7,-24.55 -14.81,-39.68 6.88,-14.96 24.54,-21.7 39.51,-14.82 0,0 0,0 0.15,0 14.98,6.89 21.7,24.57 14.82,39.68 -5.09,11.08 -16.01,17.51 -27.24,17.51 -4.19,0 -8.38,-0.9 -12.43,-2.69zm-835.32 -38.47l0 0c-5.98,-15.42 1.65,-32.79 17.07,-38.77 15.26,-6 32.63,1.49 38.77,16.91 5.99,15.42 -1.65,32.78 -17.07,38.77 -3.59,1.49 -7.18,2.09 -10.93,2.09 -11.97,0 -23.2,-7.18 -27.84,-19zm726.34 -3.75l0 0c-15.72,-5.08 -24.4,-22 -19.31,-37.73 5.09,-15.71 22.01,-24.4 37.73,-19.31 15.71,5.1 24.39,22.02 19.31,37.73 -4.2,12.72 -15.87,20.81 -28.6,20.81 -2.99,0 -6.13,-0.44 -9.13,-1.5zm-613.02 -36.82l0 0c-4.19,-16.02 5.24,-32.34 21.26,-36.53 16.02,-4.35 32.33,5.24 36.68,21.25 4.19,16.02 -5.39,32.34 -21.41,36.54 -2.55,0.74 -5.09,1.05 -7.63,1.05 -13.33,0 -25.46,-8.99 -28.9,-22.31zm499.85 7.34l0 0 0 0.14c-16.17,-3.29 -26.65,-19.16 -23.51,-35.33 3.3,-16.17 19.01,-26.8 35.34,-23.49 16.17,3.29 26.64,19 23.5,35.17 -2.84,14.22 -15.42,24.11 -29.34,24.11 -1.95,0 -3.89,-0.16 -5.99,-0.6zm-382.78 -34.59l0 0c-2.25,-16.46 8.98,-31.58 25.44,-33.98 16.32,-2.4 31.59,8.98 33.84,25.46 2.39,16.31 -8.98,31.43 -25.3,33.82 -1.5,0.15 -2.85,0.3 -4.35,0.3 -14.67,0 -27.38,-10.78 -29.63,-25.6zm267.21 18.42l0 0c-16.47,-1.51 -28.74,-15.87 -27.4,-32.34 1.36,-16.62 15.87,-28.74 32.34,-27.4 16.47,1.35 28.74,15.87 27.4,32.34 -1.35,15.57 -14.53,27.4 -29.94,27.4 -0.75,0 -1.65,0 -2.4,0zm-147.76 -32.19l0 0c-0.44,-16.62 12.58,-30.4 29.05,-30.83 16.62,-0.46 30.39,12.42 30.83,29.03 0.6,16.47 -12.41,30.25 -29.04,30.85 -0.29,0 -0.6,0 -0.9,0 -16.15,0 -29.34,-12.88 -29.94,-29.05z"/>
  <path class="fil0" d="M9627.55 1259.83l-1086.09 0 0 -1086.1 1086.09 0 0 1086.1zm-1067.8 -18.28l0 0 1049.51 0 0 -1049.53 -1049.51 0 0 1049.53z"/>
  <path class="fil0" d="M9444.65 1442.73l-1086.08 0 0 -1086.1 1086.08 0 0 1086.1zm-1067.79 -18.29l0 0 1049.5 0 0 -1049.52 -1049.5 0 0 1049.52z"/>
  <path class="fil0" d="M13872.91 9143.99c-170.49,-288.41 -268.51,-624.5 -268.51,-983.11 0,-1068.61 869.39,-1938.01 1938.01,-1938.01 251.85,0 492.63,48.34 713.58,136.15l0 19.77c-220.71,-88.7 -461.53,-137.63 -713.58,-137.63l0 0c-1058.55,0 -1919.73,861.18 -1919.73,1919.72 0,359.07 99.19,695.37 271.46,983.11l-21.23 0z"/>
  <polygon class="fil0" points="4190.13,111.05 -0,111.05 -0,0 4190.13,0 "/>
  <g id="_1469789574160">
   <g>
    <path class="fil0" d="M12542.72 7791.08l0 286.7 -286.71 0 0 -286.7 286.71 0zm-13.72 272.99l0 0 0 -259.28 -259.27 0 0 259.28 259.27 0z"/>
   </g>
   <g>
    <path class="fil0" d="M12269.73 7518.09l0 286.7 -286.7 0 0 -286.7 286.7 0zm-13.72 272.99l0 0 0 -259.28 -259.26 0 0 259.28 259.26 0z"/>
   </g>
   <g>
    <path class="fil0" d="M12269.73 7245.11l0 286.69 -286.7 0 0 -286.69 286.7 0zm-13.72 272.98l0 0 0 -259.26 -259.26 0 0 259.26 259.26 0z"/>
   </g>
   <g>
    <path class="fil0" d="M11996.75 7518.09l0 286.7 -286.7 0 0 -286.7 286.7 0zm-13.72 272.99l0 0 0 -259.28 -259.27 0 0 259.28 259.27 0z"/>
   </g>
   <g>
    <path class="fil0" d="M12542.72 7518.09l0 286.7 -286.71 0 0 -286.7 286.71 0zm-13.72 272.99l0 0 0 -259.28 -259.27 0 0 259.28 259.27 0z"/>
   </g>
   <g>
    <path class="fil0" d="M12542.72 7245.11l0 286.69 -286.71 0 0 -286.69 286.71 0zm-13.72 272.98l0 0 0 -259.26 -259.27 0 0 259.26 259.27 0z"/>
   </g>
   <g>
    <path class="fil0" d="M12542.72 6972.11l0 286.72 -286.71 0 0 -286.72 286.71 0zm-13.72 273l0 0 0 -259.28 -259.27 0 0 259.28 259.27 0z"/>
   </g>
   <g>
    <path class="fil0" d="M12269.73 7791.08l0 286.7 -286.7 0 0 -286.7 286.7 0zm-13.72 272.99l0 0 0 -259.28 -259.26 0 0 259.28 259.26 0z"/>
   </g>
   <g>
    <path class="fil0" d="M11996.75 7791.08l0 286.7 -286.7 0 0 -286.7 286.7 0zm-13.72 272.99l0 0 0 -259.28 -259.27 0 0 259.28 259.27 0z"/>
   </g>
   <g>
    <path class="fil0" d="M11723.76 7791.08l0 286.7 -286.71 0 0 -286.7 286.71 0zm-13.71 272.99l0 0 0 -259.28 -259.28 0 0 259.28 259.28 0z"/>
   </g>
  </g>
  <path class="fil0" d="M8369.6 7189.16l-1131.33 0 0 1131.33 417.94 409.95 1123.34 0 0 -1123.32 -409.95 -417.96zm382.62 429.27l0 0 0 1065.36 -382.62 -382.62 0 -1072.98 382.62 390.24zm-1486.63 -401.94l0 0 1076.68 0 0 1076.67 -1076.68 0 0 -1076.67zm11.7 1104l0 0 1072.99 0 382.62 382.62 -1065.37 0 -390.24 -382.62z"/>
  <g id="_1469789576016">
   <polygon class="fil0" points="5383.12,8521.65 5749.93,8154.85 6116.72,8521.65 6214.65,8521.65 5749.93,8056.92 5285.19,8521.65 "/>
   <polygon class="fil0" points="5109.15,8110.55 5109.15,8208.48 5749.93,7567.7 6390.7,8208.48 6390.7,8110.55 5749.93,7469.77 "/>
   <polygon class="fil0" points="5109.15,8404.12 5109.15,8502.05 5749.93,7861.27 6390.7,8502.06 6390.7,8404.12 5749.93,7763.34 "/>
   <polygon class="fil0" points="5129.54,6035.15 5109.15,6055.54 5109.15,6153.46 5227.47,6035.15 "/>
   <polygon class="fil0" points="5423.11,6035.15 5109.15,6349.11 5109.15,6447.04 5521.04,6035.15 "/>
   <polygon class="fil0" points="5676.69,8521.65 5749.93,8448.41 5823.15,8521.65 5921.08,8521.65 5749.93,8350.48 5578.76,8521.65 "/>
   <polygon class="fil0" points="5716.68,6035.15 5109.15,6642.68 5109.15,6740.61 5749.93,6099.84 6390.7,6740.61 6390.7,6642.68 5783.17,6035.15 "/>
   <polygon class="fil0" points="5978.81,6035.15 6390.7,6447.04 6390.7,6349.11 6076.74,6035.15 "/>
   <polygon class="fil0" points="6272.38,6035.15 6390.7,6153.47 6390.7,6055.54 6370.31,6035.15 "/>
   <polygon class="fil0" points="5109.15,7523.41 5109.15,7621.33 5749.93,6980.56 6390.7,7621.34 6390.7,7523.41 5749.93,6882.63 "/>
   <polygon class="fil0" points="5109.15,7816.97 5109.15,7914.9 5749.93,7274.12 6390.7,7914.9 6390.7,7816.97 5749.93,7176.2 "/>
   <polygon class="fil0" points="5109.15,6936.26 5109.15,7034.19 5749.93,6393.41 6390.7,7034.19 6390.7,6936.26 5749.93,6295.49 "/>
   <polygon class="fil0" points="5109.15,7229.83 5109.15,7327.75 5749.93,6686.98 6390.7,7327.76 6390.7,7229.83 5749.93,6589.05 "/>
  </g>
  <polygon class="fil0" points="8068.76,9143.99 5115.19,9143.99 5115.19,8921.37 8068.76,8921.37 "/>
  <path class="fil0" d="M7800.46 6040.13c48.88,0 97.74,15.15 143.27,45.46 79.45,52.92 170.6,52.92 250.05,0 91.04,-60.62 195.47,-60.62 286.52,0 79.46,52.91 170.6,52.91 250.06,0 7.56,-5.02 17.76,-2.99 22.8,4.57 5.03,7.56 2.99,17.77 -4.57,22.81 -91.05,60.63 -195.47,60.63 -286.51,0 -79.47,-52.93 -170.61,-52.92 -250.07,0 -91.04,60.63 -195.47,60.63 -286.51,0 -79.46,-52.92 -170.61,-52.92 -250.06,0 -91.05,60.63 -195.48,60.61 -286.52,0 -7.56,-5.04 -9.6,-15.25 -4.57,-22.81 5.04,-7.55 15.26,-9.58 22.8,-4.57 79.45,52.9 170.59,52.91 250.06,0 45.52,-30.31 94.39,-45.46 143.25,-45.46z"/>
  <path class="fil0" d="M7800.46 6299.85c48.88,0 97.74,15.16 143.27,45.47 79.45,52.92 170.6,52.92 250.05,0 91.04,-60.63 195.47,-60.63 286.52,0 79.46,52.91 170.6,52.91 250.06,0 7.56,-5.03 17.76,-2.99 22.8,4.57 5.03,7.56 2.99,17.77 -4.57,22.8 -91.05,60.63 -195.47,60.63 -286.51,0 -79.47,-52.92 -170.61,-52.91 -250.07,0 -91.04,60.63 -195.47,60.63 -286.51,0 -79.46,-52.91 -170.61,-52.91 -250.06,0 -91.05,60.63 -195.48,60.62 -286.52,0 -7.56,-5.03 -9.6,-15.24 -4.57,-22.8 5.04,-7.55 15.26,-9.59 22.8,-4.57 79.45,52.9 170.59,52.91 250.06,0 45.52,-30.31 94.39,-45.47 143.25,-45.47z"/>
  <path class="fil0" d="M7800.46 6559.58c48.88,0 97.74,15.16 143.27,45.47 79.45,52.92 170.6,52.92 250.05,0 91.04,-60.63 195.47,-60.63 286.52,0 79.46,52.9 170.6,52.9 250.06,0 7.56,-5.03 17.76,-3 22.8,4.57 5.03,7.56 2.99,17.76 -4.57,22.8 -91.05,60.63 -195.47,60.63 -286.51,0 -79.47,-52.93 -170.61,-52.92 -250.07,0 -91.04,60.63 -195.47,60.63 -286.51,0 -79.46,-52.91 -170.61,-52.92 -250.06,0 -91.05,60.63 -195.48,60.61 -286.52,0 -7.56,-5.04 -9.6,-15.24 -4.57,-22.8 5.04,-7.55 15.26,-9.59 22.8,-4.57 79.45,52.89 170.59,52.9 250.06,0 45.52,-30.31 94.39,-45.47 143.25,-45.47z"/>
  <path class="fil0" d="M7800.46 6819.31c48.88,0 97.74,15.15 143.27,45.46 79.45,52.92 170.6,52.92 250.05,0 91.04,-60.62 195.47,-60.62 286.52,0 79.46,52.91 170.6,52.91 250.06,0 7.56,-5.02 17.76,-2.99 22.8,4.57 5.03,7.57 2.99,17.77 -4.57,22.81 -91.05,60.62 -195.47,60.62 -286.51,0 -79.47,-52.93 -170.61,-52.92 -250.07,0 -91.04,60.62 -195.47,60.62 -286.51,0 -79.46,-52.92 -170.61,-52.92 -250.06,0 -91.05,60.62 -195.48,60.61 -286.52,0 -7.56,-5.04 -9.6,-15.24 -4.57,-22.81 5.04,-7.55 15.26,-9.58 22.8,-4.57 79.45,52.9 170.59,52.91 250.06,0 45.52,-30.31 94.39,-45.46 143.25,-45.46z"/>
  <path class="fil0" d="M9698.8 4900.45c-123,0 -223.06,100.06 -223.06,223.06 0,123 100.06,223.07 223.06,223.07 123.01,0 223.06,-100.07 223.06,-223.07 0,-123 -100.05,-223.06 -223.06,-223.06zm0 409.19l0 0c-102.63,0 -186.12,-83.5 -186.12,-186.13 0,-102.64 83.49,-186.12 186.12,-186.12 102.63,0 186.12,83.48 186.12,186.12 0,102.63 -83.49,186.13 -186.12,186.13z"/>
  <path class="fil0" d="M2804.99 8339.59c-123,0 -223.06,100.07 -223.06,223.07 0,123 100.06,223.07 223.06,223.07 123,0 223.06,-100.07 223.06,-223.07 0,-123 -100.06,-223.07 -223.06,-223.07zm0 409.2l0 0c-102.64,0 -186.12,-83.5 -186.12,-186.13 0,-102.64 83.48,-186.12 186.12,-186.12 102.63,0 186.12,83.48 186.12,186.12 0,102.63 -83.49,186.13 -186.12,186.13z"/>
  <path class="fil0" d="M299.56 493.71c-123,0 -223.06,100.06 -223.06,223.07 0,123 100.06,223.07 223.06,223.07 123,0 223.06,-100.07 223.06,-223.07 0,-123.01 -100.06,-223.07 -223.06,-223.07zm0 409.2l0 0c-102.63,0 -186.12,-83.5 -186.12,-186.13 0,-102.64 83.49,-186.13 186.12,-186.13 102.63,0 186.12,83.49 186.12,186.13 0,102.63 -83.49,186.13 -186.12,186.13z"/>
  <g id="_1470008749888">
   <path class="fil0" d="M7798.59 1150.68c-9,-7.26 -18.09,-14.33 -27.26,-21.26l-1523.19 1523.19c6.93,9.17 14.01,18.26 21.27,27.26l1529.18 -1529.19z"/>
   <path class="fil0" d="M7426.49 955.12c-12.63,-3.74 -25.33,-7.17 -38.07,-10.45l-1325.02 1325.03c3.27,12.73 6.71,25.44 10.45,38.06l1352.64 -1352.64z"/>
   <path class="fil0" d="M7687.86 1072.18c-10.05,-6.22 -20.2,-12.23 -30.42,-18.09l-1484.62 1484.63c5.86,10.21 11.87,20.36 18.09,30.42l1496.95 -1496.96z"/>
   <path class="fil0" d="M7564.34 1006.48c-11.22,-5.07 -22.51,-9.97 -33.87,-14.64l-1419.9 1419.91c4.67,11.36 9.57,22.64 14.64,33.88l1439.13 -1439.15z"/>
   <path class="fil0" d="M7271.17 921.23c-14.39,-2.06 -28.81,-3.78 -43.26,-5.26l-1193.22 1193.22c1.48,14.44 3.21,28.87 5.26,43.26l1231.22 -1231.22z"/>
   <path class="fil0" d="M7885.48 1228.75c-4.05,-4.06 -8.18,-8 -12.28,-11.98l-1537.7 1537.7c3.98,4.1 7.92,8.24 11.97,12.29 4.06,4.05 8.18,8 12.29,11.97l1537.7 -1537.7c-3.98,-4.1 -7.92,-8.22 -11.98,-12.28z"/>
   <path class="fil0" d="M7092.67 910.5c-16.95,0.37 -33.89,1.14 -50.82,2.3l-1010.32 1010.33c-1.16,16.93 -1.93,33.87 -2.3,50.82l1063.44 -1063.45z"/>
   <path class="fil0" d="M6055.51 1758.45l821.66 -821.67c-21.91,4.92 -43.7,10.52 -65.32,16.81l-739.53 739.53c-6.29,21.63 -11.89,43.42 -16.81,65.33z"/>
   <path class="fil0" d="M8201.43 2072.37c1.16,-16.92 1.93,-33.86 2.3,-50.82l-1063.46 1063.46c16.96,-0.37 33.9,-1.15 50.83,-2.31l1010.33 -1010.33z"/>
   <path class="fil0" d="M8198.26 1886.32c-1.48,-14.45 -3.2,-28.87 -5.26,-43.26l-1231.22 1231.22c14.39,2.06 28.82,3.78 43.26,5.26l1193.22 -1193.22z"/>
   <path class="fil0" d="M6564.09 1060.64c-77.31,45.65 -150.19,101.68 -216.62,168.11 -66.42,66.42 -122.46,139.31 -168.1,216.63l384.72 -384.74z"/>
   <path class="fil0" d="M8160.64 2302.38c6.28,-21.62 11.88,-43.41 16.8,-65.32l-821.66 821.66c21.91,-4.92 43.7,-10.52 65.33,-16.8l739.53 -739.54z"/>
   <path class="fil0" d="M7668.85 2934.87c77.32,-45.65 150.2,-101.69 216.63,-168.11 66.42,-66.43 122.46,-139.31 168.11,-216.63l-384.74 384.74z"/>
   <path class="fil0" d="M8060.14 1456.79c-5.86,-10.22 -11.88,-20.37 -18.1,-30.42l-1496.96 1496.95c10.06,6.22 20.22,12.24 30.43,18.1l1484.63 -1484.63z"/>
   <path class="fil0" d="M7984.81 1342.89c-6.93,-9.16 -14,-18.26 -21.26,-27.25l-1529.19 1529.19c8.99,7.26 18.09,14.32 27.26,21.26l1523.19 -1523.2z"/>
   <path class="fil0" d="M8169.55 1725.8c-3.27,-12.73 -6.7,-25.43 -10.45,-38.06l-1352.64 1352.64c12.63,3.74 25.33,7.18 38.07,10.46l1325.02 -1325.04z"/>
   <path class="fil0" d="M8122.39 1583.76c-4.68,-11.36 -9.57,-22.65 -14.64,-33.88l-1439.15 1439.14c11.23,5.07 22.52,9.97 33.88,14.64l1419.91 -1419.9z"/>
  </g>
  <g id="_1470008779456">
   <path class="fil0" d="M390.03 8334.4c-4.56,-3.69 -9.17,-7.27 -13.82,-10.78l-376.21 376.21 0 24.59 390.03 -390.02z"/>
   <path class="fil0" d="M201.4 8235.27c-6.4,-1.9 -12.84,-3.64 -19.29,-5.3l-182.11 182.11 0 24.59 201.4 -201.4z"/>
   <path class="fil0" d="M333.9 8294.61c-5.1,-3.16 -10.25,-6.21 -15.42,-9.18l-318.48 318.48 0 24.59 333.9 -333.89z"/>
   <path class="fil0" d="M271.28 8261.3c-5.69,-2.57 -11.41,-5.05 -17.17,-7.42l-254.11 254.12 0 24.58 271.28 -271.28z"/>
   <path class="fil0" d="M122.67 8218.08c-7.3,-1.04 -14.61,-1.91 -21.93,-2.66l-100.74 100.74 0 24.59 122.67 -122.67z"/>
   <path class="fil0" d="M434.07 8373.97c-2.06,-2.05 -4.15,-4.05 -6.22,-6.07l-427.85 427.84 0 24.6 440.14 -440.14c-2.01,-2.08 -4.02,-4.17 -6.07,-6.23z"/>
   <path class="fil0" d="M32.19 8212.64c-8.59,0.19 -17.18,0.58 -25.76,1.17l-6.43 6.43 0 24.59 32.19 -32.19z"/>
   <path class="fil0" d="M594.23 8801.61c0.59,-8.58 0.98,-17.17 1.17,-25.76l-368.14 368.14 24.59 0 342.38 -342.38z"/>
   <path class="fil0" d="M592.62 8707.3c-0.75,-7.32 -1.62,-14.63 -2.66,-21.93l-458.62 458.62 24.59 0 436.69 -436.69z"/>
   <path class="fil0" d="M573.55 8918.21c3.18,-10.97 6.03,-22.01 8.52,-33.11l-258.89 258.89 24.59 0 225.78 -225.78z"/>
   <path class="fil0" d="M443.46 9143.99c29.6,-31.05 54.87,-64.7 75.83,-100.2l-100.2 100.2 24.37 0z"/>
   <path class="fil0" d="M522.61 8489.56c-2.98,-5.17 -6.02,-10.32 -9.18,-15.42l-513.43 513.44 0 24.6 522.61 -522.62z"/>
   <path class="fil0" d="M484.42 8431.83c-3.51,-4.64 -7.09,-9.25 -10.77,-13.82l-473.65 473.65 0 24.59 484.42 -484.42z"/>
   <path class="fil0" d="M578.07 8625.93c-1.66,-6.45 -3.4,-12.89 -5.3,-19.29l-537.35 537.35 24.6 0 518.05 -518.06z"/>
   <path class="fil0" d="M554.16 8553.93c-2.37,-5.76 -4.85,-11.48 -7.42,-17.17l-546.74 546.74 0 24.59 554.16 -554.16z"/>
  </g>
  <g id="_1470008780416">
   <polygon class="fil0" points="4461,7009.26 4199.27,7009.26 4199.27,6747.53 4461,6747.53 "/>
   <path class="fil0" d="M4470.15 7428.83l0 280.02 -280.02 0 0 -280.02 280.02 0zm-18.29 261.73l0 0 0 -243.44 -243.44 0 0 243.44 243.44 0z"/>
  </g>
  <g id="_1470008777312">
   <polygon class="fil0" points="15195.76,1079.91 15195.76,1341.64 14934.03,1341.64 14934.03,1079.91 "/>
   <path class="fil0" d="M15615.33 1070.75l280.02 0 0 280.02 -280.02 0 0 -280.02zm261.73 18.29l0 0 -243.44 0 0 243.44 243.44 0 0 -243.44z"/>
  </g>
  <polygon class="fil0" points="244.69,5016.01 208.12,5016.01 208.12,1366.65 244.69,1366.65 "/>
  <g id="_1470008767808">
   <polygon class="fil0" points="3679.6,2389.2 3679.6,2349.38 4634.45,2349.38 4634.45,2389.2 "/>
   <polygon class="fil0" points="5254.1,2389.19 5254.1,2349.38 5480.54,2349.38 5480.54,2389.19 "/>
  </g>
  <g id="_1470008767360">
   <polygon class="fil0" points="7661.26,7706.64 7661.26,7746.46 6706.4,7746.46 6706.4,7706.64 "/>
   <polygon class="fil0" points="6086.76,7706.64 6086.76,7746.46 5860.32,7746.46 5860.32,7706.64 "/>
  </g>
  <g id="_1470008758528">
   <path class="fil0" d="M7373.36 4289.57c-14.27,0 -25.83,-11.56 -25.83,-25.82 0,-14.26 11.56,-25.82 25.83,-25.82 14.26,0 25.82,11.56 25.82,25.82 0,14.26 -11.56,25.82 -25.82,25.82z"/>
   <path class="fil0" d="M7373.36 4626.38c-14.27,0 -25.83,-11.56 -25.83,-25.82 0,-14.26 11.56,-25.83 25.83,-25.83 14.26,0 25.82,11.57 25.82,25.83 0,14.26 -11.56,25.82 -25.82,25.82z"/>
   <path class="fil0" d="M7039.48 4289.57c-14.26,0 -25.82,-11.56 -25.82,-25.82 0,-14.26 11.56,-25.82 25.82,-25.82 14.26,0 25.82,11.56 25.82,25.82 0,14.26 -11.56,25.82 -25.82,25.82z"/>
   <path class="fil0" d="M7039.48 4626.38c-14.26,0 -25.82,-11.56 -25.82,-25.82 0,-14.26 11.56,-25.83 25.82,-25.83 14.26,0 25.82,11.57 25.82,25.83 0,14.26 -11.56,25.82 -25.82,25.82z"/>
   <path class="fil0" d="M6705.6 4289.57c-14.26,0 -25.82,-11.56 -25.82,-25.82 0,-14.26 11.56,-25.82 25.82,-25.82 14.27,0 25.83,11.56 25.83,25.82 0,14.26 -11.56,25.82 -25.83,25.82z"/>
   <path class="fil0" d="M6705.6 4626.38c-14.26,0 -25.82,-11.56 -25.82,-25.82 0,-14.26 11.56,-25.83 25.82,-25.83 14.27,0 25.83,11.57 25.83,25.83 0,14.26 -11.56,25.82 -25.83,25.82z"/>
   <path class="fil0" d="M6371.74 4289.57c-14.27,0 -25.83,-11.56 -25.83,-25.82 0,-14.26 11.56,-25.82 25.83,-25.82 14.26,0 25.82,11.56 25.82,25.82 0,14.26 -11.56,25.82 -25.82,25.82z"/>
   <path class="fil0" d="M6371.74 4626.38c-14.27,0 -25.83,-11.56 -25.83,-25.82 0,-14.26 11.56,-25.83 25.83,-25.83 14.26,0 25.82,11.57 25.82,25.83 0,14.26 -11.56,25.82 -25.82,25.82z"/>
   <path class="fil0" d="M6037.85 4289.57c-14.26,0 -25.82,-11.56 -25.82,-25.82 0,-14.26 11.56,-25.82 25.82,-25.82 14.27,0 25.83,11.56 25.83,25.82 0,14.26 -11.56,25.82 -25.83,25.82z"/>
   <path class="fil0" d="M6037.85 4626.38c-14.26,0 -25.82,-11.56 -25.82,-25.82 0,-14.26 11.56,-25.83 25.82,-25.83 14.27,0 25.83,11.57 25.83,25.83 0,14.26 -11.56,25.82 -25.83,25.82z"/>
   <path class="fil0" d="M5703.98 4289.57c-14.26,0 -25.82,-11.56 -25.82,-25.82 0,-14.26 11.56,-25.82 25.82,-25.82 14.26,0 25.83,11.56 25.83,25.82 0,14.26 -11.57,25.82 -25.83,25.82z"/>
   <path class="fil0" d="M5703.98 4626.38c-14.26,0 -25.82,-11.56 -25.82,-25.82 0,-14.26 11.56,-25.83 25.82,-25.83 14.26,0 25.83,11.57 25.83,25.83 0,14.26 -11.57,25.82 -25.83,25.82z"/>
   <path class="fil0" d="M5370.11 4289.57c-14.27,0 -25.83,-11.56 -25.83,-25.82 0,-14.26 11.56,-25.82 25.83,-25.82 14.26,0 25.82,11.56 25.82,25.82 0,14.26 -11.56,25.82 -25.82,25.82z"/>
   <path class="fil0" d="M5370.11 4626.38c-14.27,0 -25.83,-11.56 -25.83,-25.82 0,-14.26 11.56,-25.83 25.83,-25.83 14.26,0 25.82,11.57 25.82,25.83 0,14.26 -11.56,25.82 -25.82,25.82z"/>
  </g>
  <g id="_1470008753088">
   <path class="fil0" d="M191.75 7350.31c0,-14.26 11.56,-25.82 25.82,-25.82 14.26,0 25.82,11.56 25.82,25.82 0,14.26 -11.56,25.82 -25.82,25.82 -14.26,0 -25.82,-11.56 -25.82,-25.82z"/>
   <path class="fil0" d="M191.75 7016.43c0,-14.26 11.56,-25.82 25.82,-25.82 14.26,0 25.82,11.56 25.82,25.82 0,14.26 -11.56,25.82 -25.82,25.82 -14.26,0 -25.82,-11.56 -25.82,-25.82z"/>
   <path class="fil0" d="M191.75 6682.56c0,-14.26 11.56,-25.82 25.82,-25.82 14.26,0 25.82,11.56 25.82,25.82 0,14.26 -11.56,25.82 -25.82,25.82 -14.26,0 -25.82,-11.56 -25.82,-25.82z"/>
   <path class="fil0" d="M191.75 6348.68c0,-14.26 11.56,-25.82 25.82,-25.82 14.26,0 25.82,11.56 25.82,25.82 0,14.26 -11.56,25.82 -25.82,25.82 -14.26,0 -25.82,-11.56 -25.82,-25.82z"/>
   <path class="fil0" d="M191.75 6014.81c0,-14.26 11.56,-25.82 25.82,-25.82 14.26,0 25.82,11.56 25.82,25.82 0,14.26 -11.56,25.82 -25.82,25.82 -14.26,0 -25.82,-11.56 -25.82,-25.82z"/>
   <path class="fil0" d="M191.75 5680.93c0,-14.26 11.56,-25.82 25.82,-25.82 14.26,0 25.82,11.56 25.82,25.82 0,14.26 -11.56,25.82 -25.82,25.82 -14.26,0 -25.82,-11.56 -25.82,-25.82z"/>
   <path class="fil0" d="M191.75 5347.06c0,-14.26 11.56,-25.82 25.82,-25.82 14.26,0 25.82,11.56 25.82,25.82 0,14.26 -11.56,25.82 -25.82,25.82 -14.26,0 -25.82,-11.56 -25.82,-25.82z"/>
  </g>
 </g>
</svg>
